<?xml version="1.0" encoding="UTF-8" standalone="no"?>
<!-- Created with Inkscape (http://www.inkscape.org/) -->

<svg
   version="1.1"
   id="svg1"
   width="1254"
   height="1254"
   viewBox="0 0 1254 1254"
   sodipodi:docname="favicon.svg"
   inkscape:version="1.4.3 (0d15f75, 2025-12-25)"
   xmlns:inkscape="http://www.inkscape.org/namespaces/inkscape"
   xmlns:sodipodi="http://sodipodi.sourceforge.net/DTD/sodipodi-0.dtd"
   xmlns="http://www.w3.org/2000/svg"
   xmlns:svg="http://www.w3.org/2000/svg">
  <defs
     id="defs1" />
  <sodipodi:namedview
     id="namedview1"
     pagecolor="#ffffff"
     bordercolor="#000000"
     borderopacity="0.25"
     inkscape:showpageshadow="2"
     inkscape:pageopacity="0.0"
     inkscape:pagecheckerboard="0"
     inkscape:deskcolor="#d1d1d1"
     inkscape:zoom="0.64832536"
     inkscape:cx="626.22878"
     inkscape:cy="627"
     inkscape:window-width="1920"
     inkscape:window-height="1094"
     inkscape:window-x="-11"
     inkscape:window-y="-11"
     inkscape:window-maximized="1"
     inkscape:current-layer="g1" />
  <g
     inkscape:groupmode="layer"
     inkscape:label="Image"
     id="g1">
    <path
       style="fill:#000000"
       d="m 769,882.84715 c -6.325,-0.46511 -36.925,-0.7335 -68,-0.59641 l -56.5,0.24926 -0.30181,-2.11464 c -0.23862,-1.67185 0.36339,-2.24768 2.875,-2.75 1.74724,-0.34945 4.44733,-0.63536 6.00019,-0.63536 1.55286,0 6.38248,-1.12432 10.73249,-2.49849 12.66936,-4.00225 19.10762,-11.10571 23.09437,-25.48049 1.33857,-4.82642 1.57002,-25.19428 1.83965,-161.89491 l 0.30844,-156.37388 -36.27417,0.5153 c -39.09995,0.55545 -51.65928,1.7355 -67.58274,6.34993 -11.84747,3.43326 -18.30749,6.72198 -24.72494,12.58717 -6.67439,6.10002 -9.89076,11.35441 -12.86693,21.01993 -2.01463,6.54281 -2.47866,7.24809 -4.60811,7.00388 -1.30234,-0.14936 -2.46634,-0.37436 -2.58667,-0.5 -0.23973,-0.25032 8.56917,-56.4535 9.16596,-58.48135 0.29393,-0.99875 34.50124,-1.2016 168.63084,-1 l 168.2621,0.25291 0.0182,29.90175 c 0.0169,27.7932 -0.10603,29.92019 -1.74311,30.16318 -2.07239,0.30759 -3.02524,-1.32245 -4.6399,-7.93749 -5.15137,-21.10448 -22.28167,-32.11836 -57.96773,-37.2702 C 812.99575,532.03841 802.45342,531.659 773,531.58905 L 735.5,531.5 735.22391,679 c -0.17362,92.75691 0.0939,151.26142 0.72093,157.63477 1.27121,12.92212 4.04619,20.37225 9.93182,26.66445 6.95357,7.43394 16.39115,11.51823 31.47964,13.62343 3.77097,0.52614 7.08751,1.18783 7.3701,1.47042 1.18324,1.18323 -0.83806,5.6004 -2.49545,5.45333 C 781.27893,883.76193 775.325,883.31226 769,882.84715 Z M 366.46318,702.88399 c -0.96153,-3.0295 0.22908,-3.70738 8.55797,-4.87254 15.68057,-2.19361 26.59113,-7.9675 32.1796,-17.02952 3.79229,-6.1494 6.68568,-18.18279 7.81018,-32.48193 1.2359,-15.71574 1.22448,-289.98378 -0.0128,-306.90012 -1.49186,-20.39739 -4.92819,-29.33626 -14.04921,-36.54601 -7.08603,-5.60118 -14.61755,-8.15855 -31.19894,-10.59376 -3.89262,-0.57168 -4.64052,-1.96131 -2.5,-4.64511 1.09467,-1.3725 2.74116,-1.43963 13.25,-0.54024 7.06841,0.60495 53.50754,1.07783 113,1.15067 111.55159,0.13657 106.7115,-0.11122 130.888,6.70075 20.41157,5.75117 36.29414,13.92007 50.37056,25.90713 41.00309,34.91703 45.60436,99.70854 9.78899,137.84076 -13.97095,14.87471 -33.02292,24.7572 -55.1758,28.62033 C 618.96767,491.30872 599,492.54582 599,491.37608 c 0,-0.48744 2.5875,-1.89157 5.75,-3.12027 16.49019,-6.40682 34.10952,-23.00865 42.72251,-40.25533 7.50828,-15.03463 10.01935,-27.05072 9.92644,-47.50048 -0.0588,-12.93856 -0.46887,-17.43505 -2.14322,-23.5 -3.05051,-11.04979 -5.82265,-17.92365 -10.01629,-24.83665 C 627.35972,322.68957 598.09297,306.92744 554,303.02471 c -14.77018,-1.30732 -61.38954,-1.29006 -70.49766,0.0261 -12.43552,1.797 -17.27296,6.94638 -19.39038,20.64074 C 463.33041,328.74617 463,378.70203 463,491.81056 c 0,140.6421 0.19478,162.04693 1.54523,169.80845 4.08692,23.48894 14.89911,32.40583 44.76572,36.91865 3.43442,0.51894 3.78022,0.84193 3.5,3.26909 L 512.5,704.5 499.5,704 c -19.99866,-0.76918 -112.8455,-0.59232 -123.18748,0.23466 -8.75802,0.70031 -9.21842,0.63718 -9.84934,-1.35067 z"
       id="path1" />
  </g>
</svg>
